# xmcd
#
# Track frame offsets:
#	150
#	12885
#	27406
#	38505
#	48467
#	60909
#	73538
#	84722
#	94276
#	106420
#	121361
#	135849
#	145541
#
# Disc length: 2112 seconds
# Revision: 0
# Processed by: cddbd v1.5.2PL0 Copyright (c) Steve Scherf et al.
# Submitted via: dBpowerAMP V12.0
#
DISCID=a1083e0d
DTITLE=The Country Side of Harmonica Sam - A Drink After Midnight
DYEAR=2017
DGENRE=Country
TTITLE0=A Drink After Midnigt
TTITLE1=Cry Me A River
TTITLE2=Empty Hours
TTITLE3=Unjust Friends
TTITLE4=Gotta Get You From That Crowd
TTITLE5=Lookout Heart
TTITLE6=Big City
TTITLE7=Even At My Best
TTITLE8=Blues Are Settin' In
TTITLE9=Tears Don't Stain
TTITLE10=True Lies
TTITLE11=I Will
TTITLE12=Country Girl
EXTD=
EXTT0=
EXTT1=
EXTT2=
EXTT3=
EXTT4=
EXTT5=
EXTT6=
EXTT7=
EXTT8=
EXTT9=
EXTT10=
EXTT11=
EXTT12=
PLAYORDER=
